<svg width="63" height="38" viewBox="0 0 63 38" fill="none" xmlns="http://www.w3.org/2000/svg">
<path d="M51.31 13.0529C51.866 12.5626 51.9197 11.7146 51.4294 11.1586C50.9392 10.6031 50.0912 10.5495 49.5351 11.0397L48.8639 11.6315C48.4073 12.034 47.4347 12.9082 46.2027 14.0145C43.8055 16.1676 40.5225 19.1171 37.604 21.6889C34.1921 24.6958 32.7544 25.8825 32.1484 26.3486C31.8565 26.3439 31.5645 26.4354 31.3236 26.6153C30.5787 26.7258 29.5009 26.953 28.5035 27.5311C27.2941 28.2318 25.8933 29.6337 26.0863 32.3323C26.232 34.3686 27.3115 35.9757 29.0479 36.7421C29.7502 37.0525 30.5182 37.2035 31.2883 37.2029C32.5577 37.2029 33.8323 36.7932 34.826 36.0094C36.2968 34.8484 36.9433 33.0535 36.6056 31.0761L36.8533 31.0451M33.1632 33.902C32.3388 34.5527 31.0921 34.7106 30.1316 34.2866C29.3109 33.9247 28.838 33.1824 28.7639 32.1408C28.6402 30.4128 29.5692 29.5627 31.9606 29.2387C32.109 29.3397 32.2547 29.4349 32.3983 29.528C33.2447 30.0777 33.7555 30.4096 33.9522 31.4833C34.14 32.5101 33.867 33.3465 33.1632 33.902Z" fill="black"/>
<path d="M30.5899 0.228037L30.441 8.52845C24.9523 8.65838 19.7166 11.0214 15.7282 14.6921L10.0122 8.97611C13.9028 4.29013 23.0738 0.365333 29.0491 0.178062C29.2685 0.171224 30.5273 0.139662 30.5899 0.228037Z" fill="black"/>
<path d="M8.91879 30.4485L0.817222 30.6968C0.168087 23.1618 3.56421 15.6809 8.57108 10.2185C8.66576 10.2317 8.78097 10.1991 8.86934 10.2185C9.26387 10.3048 13.7642 15.3501 14.5853 15.9345C11.0314 19.7883 8.86198 25.1718 8.91879 30.4485Z" fill="black"/>
<path d="M51.9632 8.08123L45.5513 13.3001C41.3918 10.3653 37.3671 8.76824 32.2803 8.37949L32.3297 0.177979C39.546 0.304229 46.717 3.1922 51.9632 8.08123Z" fill="black"/>
<path d="M62.053 30.6969L54.0508 30.548C53.7873 24.9414 52.62 22.448 49.8756 17.873C49.792 17.7347 49.3528 17.2439 49.1797 17.0282V16.7299C49.9935 15.9293 53.5416 10.6121 53.852 10.3675C53.9772 10.2691 53.9714 10.1839 54.1997 10.2186C54.7415 10.6673 55.0977 11.2817 55.5416 11.8093C58.4933 15.3144 61.0004 20.3354 61.8047 24.8815C61.953 25.72 62.5843 30.4912 62.053 30.6969Z" fill="black"/>
</svg>
