<svg width="49" height="40" viewBox="0 0 49 40" fill="none" xmlns="http://www.w3.org/2000/svg">
<path d="M46.5744 21.6573C42.5171 29.7704 32.7385 35.7278 24.6543 39.2029C16.9457 36.3933 6.54794 29.7909 2.88406 22.3032H16.9004C17.9967 22.0623 20.1508 16.8613 20.9762 15.7425C21.2582 15.8903 21.3192 16.2248 21.4239 16.4879C22.2356 18.5352 25.143 29.3043 25.4996 29.9082C26.0231 30.7957 27.0657 30.5763 27.587 29.8088C27.8505 29.4211 30.0073 23.6336 30.6191 22.3032H37.677C37.9631 23.2254 37.102 26.5253 38.7706 26.2796C39.1346 26.2265 44.5676 22.358 44.8348 22.1044C45.2278 21.7309 45.6323 21.4642 45.4808 20.8619C45.3856 20.4837 39.6165 16.3153 39.2677 16.1401C36.8995 14.9518 37.9658 18.4552 37.7269 19.7688L37.4781 20.0171C35.9195 19.9671 30.8479 19.7751 29.9231 19.9176C28.1772 20.1875 27.7443 24.379 26.6427 25.5842C25.8174 23.2591 23.0483 13.33 22.6164 12.4121C22.2929 11.724 21.7726 11.2743 20.9762 11.4678C20.1188 11.6767 16.8694 18.9187 15.9067 20.0171L1.69099 19.9176C-2.14964 11.45 2.92982 0.970677 12.7252 0.831276C17.6858 0.760261 22.2455 3.85286 24.456 8.18744C25.7322 6.118 27.3366 4.12062 29.426 2.81919C40.0494 -3.79526 53.8191 7.1706 46.5744 21.6573Z" fill="black"/>
</svg>
