<svg width="133" height="54" viewBox="0 0 133 54" fill="none" xmlns="http://www.w3.org/2000/svg">
<g clip-path="url(#clip0_4091_1618)">
<path d="M31.3997 6.09416V16.3783L21.3164 6.09416H13.0806V20.399H19.2799V10.1391L29.4428 20.399H35.5624L36.0106 19.6635C36.0355 19.6231 36.0305 19.5989 36.0006 19.5625C34.5516 17.8896 33.7848 15.9176 33.7848 13.8608C33.7848 11.2059 35.0595 8.71267 37.3699 6.83769C37.4546 6.76899 37.5392 6.70434 37.6239 6.63968V6.09416H31.3997Z" fill="white"/>
<path d="M56.4848 6.09416C56.674 6.13457 56.8781 6.13457 57.0674 6.09416H56.4848ZM71.4976 6.09416L64.5265 17.0935H64.1978L57.6798 6.76899C57.401 6.8781 57.0923 6.93467 56.7786 6.93467H56.7288L56.0366 8.054C56.0117 8.09441 56.0117 8.11865 56.0466 8.15502C57.4956 9.82796 58.2624 11.7999 58.2624 13.8608C58.2624 14.9639 58.0433 16.0388 57.6201 17.049L59.7911 20.399H68.7689L78.165 6.09416H71.4976Z" fill="white"/>
<path d="M88.334 6.11436H79.5753L70.707 20.399H77.1802L78.8035 17.5824H88.7772L90.3756 20.399H96.8736L88.334 6.11436ZM80.1828 15.0124L83.8476 8.73287L87.4278 15.0124H80.1828Z" fill="white"/>
<path d="M23.9358 20.8071L14.7937 28.0928L5.89558 20.8071H0V35.1119H6.11467V26.9088L14.7389 33.4834L23.5226 26.9088L23.4977 35.1119H29.6372V20.8071H23.9358Z" fill="white"/>
<path d="M53.9763 33.4389L48.1206 23.6478C47.4334 23.7448 46.7363 23.7933 46.0242 23.7933C43.4897 23.7933 41.0598 23.171 38.9983 21.9951C38.9734 21.983 38.9535 21.9749 38.9336 21.9749C38.9137 21.9749 38.8888 21.983 38.8739 21.987L36.3194 23.0175L29.6371 33.7824L28.8105 35.1119H35.2837L36.907 32.2954H46.8807L48.4791 35.1119H54.9771L53.9763 33.4389ZM38.2863 29.7254L41.9511 23.4458L45.5313 29.7254H38.2863Z" fill="white"/>
<path d="M72.2952 20.8071V31.0912L62.2169 20.8071H53.9761V35.1119H60.1754V24.852L70.3433 35.1119H78.5244V20.8071H72.2952Z" fill="white"/>
<path d="M79.5098 20.8313V35.1119H85.6543V20.8313H79.5098Z" fill="white"/>
<path d="M111.189 20.8313H104.223L98.3527 25.8138H98.1087L92.1036 20.8313H84.8287L85.6553 21.5021L93.5625 27.9393L85.6553 34.3926L84.7739 35.1119H91.9094L97.7502 30.2628H98.0539L104.059 35.1119H111.135L102.431 27.9837L111.189 20.8313Z" fill="white"/>
<path d="M57.5861 4.54245C57.138 4.18281 56.416 4.18281 55.9678 4.54245C55.5247 4.90613 55.5247 5.49206 55.9678 5.85574C56.1172 5.97293 56.2965 6.05375 56.4857 6.09416C56.6749 6.13457 56.879 6.13457 57.0683 6.09416C57.2575 6.05375 57.4367 5.97293 57.5861 5.85574C58.0293 5.49206 58.0293 4.90613 57.5861 4.54245ZM54.5138 6.09416H54.5238L54.5338 6.08607L54.5138 6.09416ZM53.9761 20.8071V21.4092C54.2151 21.2435 54.4491 21.0697 54.6782 20.8839C54.708 20.8596 54.7379 20.8354 54.7678 20.8071H53.9761Z" fill="white"/>
<path d="M57.5864 4.54245C57.1383 4.18281 56.4163 4.18281 55.9681 4.54245C55.525 4.90613 55.525 5.49206 55.9681 5.85574C56.1175 5.97293 56.2968 6.05375 56.486 6.09416C56.6752 6.13457 56.8794 6.13457 57.0686 6.09416C57.2578 6.05375 57.4371 5.97293 57.5864 5.85574C58.0296 5.49206 58.0296 4.90613 57.5864 4.54245ZM54.5142 6.09416H54.5241L54.5341 6.08607L54.5142 6.09416Z" fill="white"/>
<path d="M57.2683 13.8608C57.2683 14.5881 57.1637 15.3115 56.9546 16.0227C56.4816 17.5946 55.4907 19.0857 53.9769 20.3141C52.1993 21.7567 49.9785 22.6134 47.6681 22.8882C47.1253 22.9528 46.5726 22.9851 46.0249 22.9851C43.7643 22.9851 41.5036 22.4356 39.5716 21.3364C39.228 21.1384 38.8098 21.1142 38.4363 21.2637L37.5151 21.6355L40.1741 19.4776C41.0156 18.7947 42.2206 18.6048 43.3161 18.9846C44.1775 19.2877 45.1037 19.4372 46.0249 19.4372C47.7826 19.4372 49.5403 18.8917 50.8848 17.8047C52.2242 16.7137 52.8964 15.2872 52.8964 13.8608C52.8964 13.1092 52.7122 12.3616 52.3437 11.6625C51.9304 10.8907 52.0549 10.0502 52.6524 9.39558C52.7371 9.29456 52.8367 9.20162 52.9462 9.11272L54.4948 7.856L55.6052 6.95488L55.1471 7.69032C54.9579 7.99743 54.9927 8.34091 55.2317 8.61973C56.5911 10.1876 57.2683 12.0222 57.2683 13.8608Z" fill="white"/>
<path d="M54.524 6.09416L53.4235 6.9872L51.8749 8.24392C51.0334 8.92684 49.8284 9.11676 48.733 8.73691C47.8715 8.43385 46.9503 8.28433 46.0242 8.28433C44.2665 8.28433 42.5087 8.82985 41.1643 9.91686C39.8249 11.0079 39.1526 12.4343 39.1526 13.8608C39.1526 14.6083 39.3369 15.36 39.7103 16.059C40.1784 16.948 39.9444 17.9259 39.1029 18.6088L37.624 19.813L37.5593 19.8656L36.897 20.399L36.4439 20.7667L36.6729 20.399L36.902 20.0231C37.0862 19.716 37.0563 19.3766 36.8123 19.0978C35.458 17.5299 34.7808 15.6953 34.7808 13.8608C34.7808 11.6908 35.7268 9.52085 37.624 7.79538C37.7684 7.66203 37.9178 7.53272 38.0721 7.40746C40.268 5.62542 43.1461 4.73642 46.0242 4.73642C48.0757 4.73642 50.1222 5.189 51.9297 6.09416C52.114 6.1871 52.2982 6.28408 52.4824 6.38915C52.831 6.58715 53.2493 6.6114 53.6277 6.45784L54.514 6.09416H54.524Z" fill="white"/>
</g>
<rect width="62.9371" height="12.5874" transform="translate(0 37.8392)" fill="white"/>
<path d="M4.48973 46.1329L2.71351 41.2378H3.48274L4.94427 45.2692L6.41281 41.2378H7.18204L5.40581 46.1329H4.48973ZM8.72481 41.2378H9.57446L11.3542 46.1329H10.585L10.2458 45.2028H8.05349L7.71782 46.1329H6.94509L8.72481 41.2378ZM8.32272 44.4755H9.97656L9.14789 42.2028L8.32272 44.4755ZM13.2654 46.2238C12.9973 46.2238 12.7397 46.1818 12.4926 46.0979C12.2455 46.014 12.0299 45.8939 11.8458 45.7378C11.6616 45.5793 11.5299 45.3916 11.4507 45.1748L12.1325 44.9196C12.1721 45.0315 12.2479 45.1317 12.3598 45.2203C12.474 45.3065 12.6092 45.3741 12.7654 45.4231C12.9239 45.472 13.0905 45.4965 13.2654 45.4965C13.4518 45.4965 13.6267 45.4662 13.7898 45.4056C13.9553 45.345 14.0882 45.2611 14.1884 45.1539C14.291 45.0466 14.3423 44.9208 14.3423 44.7762C14.3423 44.627 14.2887 44.5047 14.1814 44.4091C14.0765 44.3135 13.9413 44.2378 13.7758 44.1818C13.6127 44.1259 13.4425 44.0839 13.2654 44.056C12.9227 44 12.615 43.9184 12.3423 43.8112C12.0719 43.704 11.8574 43.5536 11.6989 43.3601C11.5427 43.1667 11.4647 42.9149 11.4647 42.6049C11.4647 42.3135 11.5474 42.0594 11.7129 41.8427C11.8807 41.6259 12.101 41.458 12.3737 41.3392C12.6488 41.218 12.946 41.1573 13.2654 41.1573C13.5288 41.1573 13.7828 41.1993 14.0276 41.2832C14.2747 41.3648 14.4915 41.4849 14.6779 41.6434C14.8668 41.7995 15.0019 41.9895 15.0835 42.2133L14.3947 42.4615C14.3551 42.3473 14.2793 42.2483 14.1675 42.1643C14.0556 42.0781 13.9204 42.0105 13.7619 41.9615C13.6057 41.9126 13.4402 41.8881 13.2654 41.8881C13.0789 41.8858 12.904 41.9161 12.7409 41.979C12.58 42.0396 12.4483 42.1235 12.3458 42.2308C12.2432 42.338 12.1919 42.4627 12.1919 42.6049C12.1919 42.7797 12.2397 42.9126 12.3353 43.0035C12.4309 43.0944 12.5591 43.162 12.7199 43.2063C12.8831 43.2483 13.0649 43.2867 13.2654 43.3217C13.587 43.373 13.8842 43.458 14.157 43.5769C14.432 43.6958 14.6523 43.8543 14.8178 44.0525C14.9856 44.2483 15.0695 44.4895 15.0695 44.7762C15.0695 45.0653 14.9856 45.3194 14.8178 45.5385C14.6523 45.7553 14.432 45.9242 14.157 46.0455C13.8842 46.1643 13.587 46.2238 13.2654 46.2238ZM17.9217 46.2238C17.5907 46.2238 17.2795 46.1585 16.9881 46.028C16.6967 45.8951 16.4403 45.7121 16.2189 45.479C15.9974 45.2459 15.8238 44.9767 15.6979 44.6713C15.572 44.3636 15.5091 44.035 15.5091 43.6853C15.5091 43.3357 15.572 43.0082 15.6979 42.7028C15.8238 42.3951 15.9974 42.1247 16.2189 41.8916C16.4403 41.6585 16.6967 41.4767 16.9881 41.3462C17.2795 41.2133 17.5907 41.1469 17.9217 41.1469C18.255 41.1469 18.5673 41.2133 18.8587 41.3462C19.1501 41.4767 19.4065 41.6585 19.628 41.8916C19.8494 42.1247 20.0219 42.3951 20.1454 42.7028C20.2713 43.0082 20.3342 43.3357 20.3342 43.6853C20.3342 44.035 20.2713 44.3636 20.1454 44.6713C20.0219 44.9767 19.8494 45.2459 19.628 45.479C19.4065 45.7121 19.1501 45.8951 18.8587 46.028C18.5673 46.1585 18.255 46.2238 17.9217 46.2238ZM17.9217 45.4965C18.1548 45.4965 18.3727 45.4487 18.5755 45.3532C18.7783 45.2576 18.9566 45.127 19.1105 44.9615C19.2666 44.7937 19.3879 44.6014 19.4741 44.3846C19.5627 44.1655 19.607 43.9324 19.607 43.6853C19.607 43.4382 19.5627 43.2051 19.4741 42.986C19.3879 42.7669 19.2666 42.5746 19.1105 42.4091C18.9566 42.2413 18.7783 42.1107 18.5755 42.0175C18.3727 41.9219 18.1548 41.8741 17.9217 41.8741C17.6886 41.8741 17.4706 41.9219 17.2678 42.0175C17.065 42.1131 16.8855 42.2448 16.7293 42.4126C16.5755 42.5781 16.4543 42.7704 16.3657 42.9895C16.2795 43.2063 16.2363 43.4382 16.2363 43.6853C16.2363 43.9347 16.2795 44.169 16.3657 44.3881C16.4543 44.6049 16.5755 44.7972 16.7293 44.965C16.8855 45.1305 17.065 45.2611 17.2678 45.3566C17.4706 45.4499 17.6886 45.4965 17.9217 45.4965ZM20.8904 43.6713H23.1282V44.3986H20.8904V43.6713ZM23.8305 46.1329V41.2378H26.8689V41.965H24.5577V43.1469H26.4179V43.8741H24.5577V45.4056H26.8689V46.1329H23.8305ZM27.2915 46.1329L29.0852 43.6713L27.3124 41.2378H28.211L29.5327 43.056L30.8579 41.2378H31.7565L29.9873 43.6713L31.7775 46.1329H30.8754L29.5327 44.2937L28.1971 46.1329H27.2915ZM32.3398 46.1329V41.2378H34.0251C34.2885 41.2378 34.5263 41.303 34.7384 41.4336C34.9529 41.5641 35.123 41.7401 35.2489 41.9615C35.3771 42.183 35.4412 42.4277 35.4412 42.6958C35.4412 42.9685 35.3759 43.2156 35.2454 43.4371C35.1172 43.6562 34.9459 43.831 34.7314 43.9615C34.517 44.0921 34.2815 44.1573 34.0251 44.1573H33.0671V46.1329H32.3398ZM33.0671 43.4301H33.9517C34.0916 43.4301 34.2186 43.3951 34.3328 43.3252C34.4494 43.2553 34.5414 43.162 34.609 43.0455C34.679 42.9289 34.7139 42.7972 34.7139 42.6504C34.7139 42.5035 34.679 42.3718 34.609 42.2553C34.5414 42.1364 34.4494 42.0431 34.3328 41.9755C34.2186 41.9056 34.0916 41.8706 33.9517 41.8706H33.0671V43.4301ZM36.8651 41.2378H37.7148L39.4945 46.1329H38.7253L38.3861 45.2028H36.1938L35.8581 46.1329H35.0854L36.8651 41.2378ZM36.463 44.4755H38.1169L37.2882 42.2028L36.463 44.4755ZM39.9682 46.1329V41.2378H40.7549L43.0032 44.8182V41.2378H43.7304V46.1329H42.9437L40.6955 42.5525V46.1329H39.9682ZM46.1759 46.2238C45.9079 46.2238 45.6503 46.1818 45.4032 46.0979C45.1561 46.014 44.9405 45.8939 44.7563 45.7378C44.5722 45.5793 44.4405 45.3916 44.3612 45.1748L45.0431 44.9196C45.0827 45.0315 45.1584 45.1317 45.2703 45.2203C45.3845 45.3065 45.5197 45.3741 45.6759 45.4231C45.8344 45.472 46.0011 45.4965 46.1759 45.4965C46.3624 45.4965 46.5372 45.4662 46.7004 45.4056C46.8659 45.345 46.9988 45.2611 47.099 45.1539C47.2016 45.0466 47.2528 44.9208 47.2528 44.7762C47.2528 44.627 47.1992 44.5047 47.092 44.4091C46.9871 44.3135 46.8519 44.2378 46.6864 44.1818C46.5232 44.1259 46.3531 44.0839 46.1759 44.056C45.8333 44 45.5256 43.9184 45.2528 43.8112C44.9824 43.704 44.768 43.5536 44.6095 43.3601C44.4533 43.1667 44.3752 42.9149 44.3752 42.6049C44.3752 42.3135 44.458 42.0594 44.6235 41.8427C44.7913 41.6259 45.0116 41.458 45.2843 41.3392C45.5594 41.218 45.8566 41.1573 46.1759 41.1573C46.4393 41.1573 46.6934 41.1993 46.9382 41.2832C47.1852 41.3648 47.402 41.4849 47.5885 41.6434C47.7773 41.7995 47.9125 41.9895 47.9941 42.2133L47.3053 42.4615C47.2657 42.3473 47.1899 42.2483 47.078 42.1643C46.9661 42.0781 46.8309 42.0105 46.6724 41.9615C46.5162 41.9126 46.3507 41.8881 46.1759 41.8881C45.9894 41.8858 45.8146 41.9161 45.6514 41.979C45.4906 42.0396 45.3589 42.1235 45.2563 42.2308C45.1538 42.338 45.1025 42.4627 45.1025 42.6049C45.1025 42.7797 45.1503 42.9126 45.2458 43.0035C45.3414 43.0944 45.4696 43.162 45.6305 43.2063C45.7936 43.2483 45.9755 43.2867 46.1759 43.3217C46.4976 43.373 46.7948 43.458 47.0675 43.5769C47.3426 43.6958 47.5629 43.8543 47.7284 44.0525C47.8962 44.2483 47.9801 44.4895 47.9801 44.7762C47.9801 45.0653 47.8962 45.3194 47.7284 45.5385C47.5629 45.7553 47.3426 45.9242 47.0675 46.0455C46.7948 46.1643 46.4976 46.2238 46.1759 46.2238ZM48.7532 46.1329V41.2378H49.4804V46.1329H48.7532ZM52.5567 46.2238C52.2257 46.2238 51.9145 46.1585 51.6231 46.028C51.3318 45.8951 51.0754 45.7121 50.8539 45.479C50.6325 45.2459 50.4588 44.9767 50.3329 44.6713C50.2071 44.3636 50.1441 44.035 50.1441 43.6853C50.1441 43.3357 50.2071 43.0082 50.3329 42.7028C50.4588 42.3951 50.6325 42.1247 50.8539 41.8916C51.0754 41.6585 51.3318 41.4767 51.6231 41.3462C51.9145 41.2133 52.2257 41.1469 52.5567 41.1469C52.89 41.1469 53.2024 41.2133 53.4938 41.3462C53.7851 41.4767 54.0416 41.6585 54.263 41.8916C54.4844 42.1247 54.6569 42.3951 54.7805 42.7028C54.9064 43.0082 54.9693 43.3357 54.9693 43.6853C54.9693 44.035 54.9064 44.3636 54.7805 44.6713C54.6569 44.9767 54.4844 45.2459 54.263 45.479C54.0416 45.7121 53.7851 45.8951 53.4938 46.028C53.2024 46.1585 52.89 46.2238 52.5567 46.2238ZM52.5567 45.4965C52.7898 45.4965 53.0078 45.4487 53.2106 45.3532C53.4134 45.2576 53.5917 45.127 53.7455 44.9615C53.9017 44.7937 54.0229 44.6014 54.1092 44.3846C54.1977 44.1655 54.242 43.9324 54.242 43.6853C54.242 43.4382 54.1977 43.2051 54.1092 42.986C54.0229 42.7669 53.9017 42.5746 53.7455 42.4091C53.5917 42.2413 53.4134 42.1107 53.2106 42.0175C53.0078 41.9219 52.7898 41.8741 52.5567 41.8741C52.3236 41.8741 52.1057 41.9219 51.9029 42.0175C51.7001 42.1131 51.5206 42.2448 51.3644 42.4126C51.2106 42.5781 51.0893 42.7704 51.0008 42.9895C50.9145 43.2063 50.8714 43.4382 50.8714 43.6853C50.8714 43.9347 50.9145 44.169 51.0008 44.3881C51.0893 44.6049 51.2106 44.7972 51.3644 44.965C51.5206 45.1305 51.7001 45.2611 51.9029 45.3566C52.1057 45.4499 52.3236 45.4965 52.5567 45.4965ZM55.4913 46.1329V41.2378H56.278L58.5263 44.8182V41.2378H59.2536V46.1329H58.4668L56.2186 42.5525V46.1329H55.4913Z" fill="#00AEFF"/>
<rect x="66.084" y="38.1888" width="45.4545" height="11.8881" stroke="white" stroke-width="0.699301"/>
<path d="M70.4759 46.2238C70.2078 46.2238 69.9502 46.1818 69.7031 46.0979C69.456 46.014 69.2404 45.8939 69.0563 45.7378C68.8721 45.5793 68.7404 45.3916 68.6612 45.1748L69.343 44.9196C69.3826 45.0315 69.4584 45.1317 69.5703 45.2203C69.6845 45.3065 69.8197 45.3741 69.9759 45.4231C70.1344 45.472 70.301 45.4965 70.4759 45.4965C70.6623 45.4965 70.8372 45.4662 71.0003 45.4056C71.1658 45.345 71.2987 45.2611 71.3989 45.1539C71.5015 45.0466 71.5528 44.9208 71.5528 44.7762C71.5528 44.627 71.4992 44.5047 71.3919 44.4091C71.287 44.3135 71.1518 44.2378 70.9863 44.1818C70.8232 44.1259 70.653 44.0839 70.4759 44.056C70.1332 44 69.8255 43.9184 69.5528 43.8112C69.2824 43.704 69.0679 43.5536 68.9094 43.3601C68.7532 43.1667 68.6752 42.9149 68.6752 42.6049C68.6752 42.3135 68.7579 42.0594 68.9234 41.8427C69.0912 41.6259 69.3115 41.458 69.5843 41.3392C69.8593 41.218 70.1565 41.1573 70.4759 41.1573C70.7393 41.1573 70.9933 41.1993 71.2381 41.2832C71.4852 41.3648 71.702 41.4849 71.8884 41.6434C72.0773 41.7995 72.2125 41.9895 72.294 42.2133L71.6052 42.4615C71.5656 42.3473 71.4898 42.2483 71.378 42.1643C71.2661 42.0781 71.1309 42.0105 70.9724 41.9615C70.8162 41.9126 70.6507 41.8881 70.4759 41.8881C70.2894 41.8858 70.1146 41.9161 69.9514 41.979C69.7905 42.0396 69.6588 42.1235 69.5563 42.2308C69.4537 42.338 69.4024 42.4627 69.4024 42.6049C69.4024 42.7797 69.4502 42.9126 69.5458 43.0035C69.6414 43.0944 69.7696 43.162 69.9304 43.2063C70.0936 43.2483 70.2754 43.2867 70.4759 43.3217C70.7975 43.373 71.0947 43.458 71.3675 43.5769C71.6425 43.6958 71.8628 43.8543 72.0283 44.0525C72.1961 44.2483 72.2801 44.4895 72.2801 44.7762C72.2801 45.0653 72.1961 45.3194 72.0283 45.5385C71.8628 45.7553 71.6425 45.9242 71.3675 46.0455C71.0947 46.1643 70.7975 46.2238 70.4759 46.2238ZM73.0531 46.1329V41.2378H73.7804V46.1329H73.0531ZM74.4441 46.1329V45.4056L77.4231 41.965H74.4441V41.2378H78.4021V41.965L75.4231 45.4056H78.4021V46.1329H74.4441ZM78.9581 46.1329V41.2378H81.9966V41.965H79.6854V43.1469H81.5455V43.8741H79.6854V45.4056H81.9966V46.1329H78.9581ZM84.169 46.1329L85.1165 41.2378H85.704L86.9592 44.535L88.2074 41.2378H88.7949L89.7459 46.1329H89.0047L88.3718 42.8566L87.2005 45.9476H86.7109L85.5431 42.8566L84.9102 46.1329H84.169ZM91.7469 41.2378H92.5965L94.3763 46.1329H93.607L93.2679 45.2028H91.0756L90.7399 46.1329H89.9672L91.7469 41.2378ZM91.3448 44.4755H92.9986L92.17 42.2028L91.3448 44.4755ZM97.9928 41.2378V41.965H96.4334V46.1329H95.7061V41.965H94.1501V41.2378H97.9928ZM98.5549 46.1329V41.2378H100.356C100.621 41.2378 100.86 41.303 101.072 41.4336C101.285 41.5641 101.452 41.7401 101.576 41.9615C101.702 42.1807 101.765 42.4254 101.765 42.6958C101.765 42.9242 101.722 43.1329 101.635 43.3217C101.551 43.5105 101.433 43.6713 101.279 43.8042C101.127 43.9371 100.954 44.0326 100.758 44.0909L101.94 46.1329H101.097L99.95 44.1573H99.2822V46.1329H98.5549ZM99.2822 43.4301H100.279C100.419 43.4301 100.546 43.3951 100.66 43.3252C100.776 43.2553 100.868 43.162 100.936 43.0455C101.004 42.9289 101.037 42.7972 101.037 42.6504C101.037 42.5035 101.004 42.3718 100.936 42.2553C100.868 42.1364 100.776 42.0431 100.66 41.9755C100.546 41.9056 100.419 41.8706 100.279 41.8706H99.2822V43.4301ZM102.638 46.1329V41.2378H103.365V46.1329H102.638ZM103.959 46.1329L105.753 43.6713L103.98 41.2378H104.879L106.2 43.056L107.525 41.2378H108.424L106.655 43.6713L108.445 46.1329H107.543L106.2 44.2937L104.865 46.1329H103.959Z" fill="white"/>
<defs>
<clipPath id="clip0_4091_1618">
<rect width="132.168" height="34.965" fill="white" transform="translate(0 0.0769196)"/>
</clipPath>
</defs>
</svg>
