<svg width="189" height="77" viewBox="0 0 189 77" fill="none" xmlns="http://www.w3.org/2000/svg">
<g clip-path="url(#clip0_4038_2718)">
<path d="M44.9014 8.60466V23.3109L30.4824 8.60466H18.7051V29.0605H27.5701V14.3889L42.1031 29.0605H50.8541L51.495 28.0088C51.5306 27.951 51.5235 27.9164 51.4808 27.8644C49.4087 25.4721 48.3121 22.6522 48.3121 19.7109C48.3121 15.9144 50.135 12.3491 53.4389 9.6679C53.5599 9.56967 53.681 9.47721 53.802 9.38476V8.60466H44.9014Z" fill="white"/>
<path d="M80.7744 8.60466C81.045 8.66244 81.3369 8.66244 81.6075 8.60466H80.7744ZM102.243 8.60466L92.274 24.3337H91.804L82.4833 9.56967C82.0846 9.72569 81.6431 9.80659 81.1945 9.80659H81.1233L80.1335 11.4072C80.0979 11.465 80.0979 11.4997 80.1478 11.5517C82.2198 13.944 83.3164 16.7639 83.3164 19.7109C83.3164 21.2884 83.0031 22.8255 82.3979 24.2701L85.5024 29.0605H98.3407L111.777 8.60466H102.243Z" fill="white"/>
<path d="M126.317 8.63354H113.792L101.111 29.0605H110.367L112.689 25.0329H126.951L129.237 29.0605H138.529L126.317 8.63354ZM114.661 21.3578L119.902 12.378L125.021 21.3578H114.661Z" fill="white"/>
<path d="M34.2283 29.6441L21.155 40.0627L8.43068 29.6441H0V50.1H8.74398V38.3696L21.0767 47.7712L33.6373 38.3696L33.6017 50.1H42.3812V29.6441H34.2283Z" fill="white"/>
<path d="M77.1867 47.7077L68.813 33.7064C67.8304 33.8451 66.8335 33.9144 65.8153 33.9144C62.1909 33.9144 58.7161 33.0246 55.7683 31.343C55.7327 31.3257 55.7042 31.3141 55.6757 31.3141C55.6472 31.3141 55.6116 31.3257 55.5902 31.3315L51.9374 32.805L42.3817 48.1989L41.1997 50.1H50.4564L52.7776 46.0724H67.04L69.3257 50.1H78.618L77.1867 47.7077ZM54.75 42.3973L59.9907 33.4175L65.1104 42.3973H54.75Z" fill="white"/>
<path d="M103.383 29.6441V44.3504L88.971 29.6441H77.1865V50.1H86.0515V35.4284L100.592 50.1H112.291V29.6441H103.383Z" fill="white"/>
<path d="M113.7 29.6788V50.1H122.486V29.6788H113.7Z" fill="white"/>
<path d="M159 29.6788H149.038L140.643 36.8037H140.294L131.707 29.6788H121.304L122.486 30.638L133.793 39.8432L122.486 49.0714L121.226 50.1H131.429L139.782 43.1658H140.216L148.803 50.1H158.922L146.475 39.9067L159 29.6788Z" fill="white"/>
<path d="M82.3489 6.38571C81.708 5.87143 80.6756 5.87143 80.0347 6.38571C79.401 6.90578 79.401 7.74366 80.0347 8.26372C80.2483 8.4313 80.5047 8.54687 80.7753 8.60465C81.0458 8.66244 81.3378 8.66244 81.6084 8.60465C81.8789 8.54687 82.1353 8.4313 82.3489 8.26372C82.9826 7.74366 82.9826 6.90578 82.3489 6.38571ZM77.9555 8.60465H77.9698L77.984 8.5931L77.9555 8.60465ZM77.1865 29.6441V30.5051C77.5283 30.2682 77.863 30.0197 78.1905 29.7539C78.2332 29.7193 78.276 29.6846 78.3187 29.6441H77.1865Z" fill="white"/>
<path d="M82.3494 6.38571C81.7086 5.87143 80.6761 5.87143 80.0352 6.38571C79.4015 6.90578 79.4015 7.74366 80.0352 8.26372C80.2489 8.4313 80.5052 8.54687 80.7758 8.60465C81.0464 8.66244 81.3383 8.66244 81.6089 8.60465C81.8794 8.54687 82.1358 8.4313 82.3494 8.26372C82.9831 7.74366 82.9831 6.90578 82.3494 6.38571ZM77.9561 8.60465H77.9703L77.9845 8.5931L77.9561 8.60465Z" fill="white"/>
<path d="M81.893 19.7109C81.893 20.751 81.7435 21.7854 81.4444 22.8024C80.768 25.0502 79.351 27.1825 77.1864 28.9392C74.6444 31.0021 71.4686 32.2271 68.1647 32.6201C67.3886 32.7125 66.5982 32.7587 65.8149 32.7587C62.5822 32.7587 59.3495 31.9729 56.5868 30.4011C56.0955 30.118 55.4973 30.0833 54.9633 30.2971L53.646 30.8287L57.4483 27.743C58.6517 26.7665 60.3749 26.4949 61.9414 27.038C63.1732 27.4714 64.4976 27.6852 65.8149 27.6852C68.3285 27.6852 70.842 26.9051 72.7645 25.3507C74.68 23.7905 75.6412 21.7507 75.6412 19.7109C75.6412 18.6361 75.3778 17.5671 74.8509 16.5674C74.2599 15.4637 74.4379 14.2618 75.2923 13.3257C75.4134 13.1812 75.5558 13.0483 75.7124 12.9212L77.9269 11.1241L79.5148 9.83548L78.8597 10.8872C78.5891 11.3263 78.639 11.8175 78.9807 12.2162C80.9246 14.4583 81.893 17.0817 81.893 19.7109Z" fill="white"/>
<path d="M77.9701 8.60466L76.3965 9.8817L74.182 11.6788C72.9786 12.6554 71.2555 12.927 69.689 12.3838C68.4571 11.9504 67.1398 11.7366 65.8154 11.7366C63.3019 11.7366 60.7883 12.5167 58.8658 14.0711C56.9504 15.6313 55.9891 17.6711 55.9891 19.7109C55.9891 20.7799 56.2526 21.8547 56.7866 22.8544C57.4559 24.1257 57.1213 25.5241 55.9179 26.5006L53.8031 28.2226L53.7105 28.2977L52.7635 29.0605L52.1156 29.5864L52.4431 29.0605L52.7706 28.5231C53.0341 28.0839 52.9914 27.5986 52.6425 27.1998C50.7057 24.9578 49.7373 22.3343 49.7373 19.7109C49.7373 16.6079 51.0902 13.5048 53.8031 11.0374C54.0096 10.8467 54.2232 10.6618 54.444 10.4827C57.5841 7.93435 61.6997 6.66309 65.8154 6.66309C68.749 6.66309 71.6756 7.31028 74.2603 8.60466C74.5238 8.73756 74.7872 8.87625 75.0507 9.02649C75.5491 9.30963 76.1472 9.3443 76.6884 9.12472L77.9559 8.60466H77.9701Z" fill="white"/>
</g>
<rect width="90" height="18" transform="translate(0 54)" fill="white"/>
<path d="M6.89 67L4.35 60H5.45L7.54 65.765L9.64 60H10.74L8.2 67H6.89ZM12.9462 60H14.1612L16.7062 67H15.6062L15.1212 65.67H11.9862L11.5062 67H10.4012L12.9462 60ZM12.3712 64.63H14.7362L13.5512 61.38L12.3712 64.63ZM19.4391 67.13C19.0558 67.13 18.6875 67.07 18.3341 66.95C17.9808 66.83 17.6725 66.6583 17.4091 66.435C17.1458 66.2083 16.9575 65.94 16.8441 65.63L17.8191 65.265C17.8758 65.425 17.9841 65.5683 18.1441 65.695C18.3075 65.8183 18.5008 65.915 18.7241 65.985C18.9508 66.055 19.1891 66.09 19.4391 66.09C19.7058 66.09 19.9558 66.0467 20.1891 65.96C20.4258 65.8733 20.6158 65.7533 20.7591 65.6C20.9058 65.4467 20.9791 65.2667 20.9791 65.06C20.9791 64.8467 20.9025 64.6717 20.7491 64.535C20.5991 64.3983 20.4058 64.29 20.1691 64.21C19.9358 64.13 19.6925 64.07 19.4391 64.03C18.9491 63.95 18.5091 63.8333 18.1191 63.68C17.7325 63.5267 17.4258 63.3117 17.1991 63.035C16.9758 62.7583 16.8641 62.3983 16.8641 61.955C16.8641 61.5383 16.9825 61.175 17.2191 60.865C17.4591 60.555 17.7741 60.315 18.1641 60.145C18.5575 59.9717 18.9825 59.885 19.4391 59.885C19.8158 59.885 20.1791 59.945 20.5291 60.065C20.8825 60.1817 21.1925 60.3533 21.4591 60.58C21.7291 60.8033 21.9225 61.075 22.0391 61.395L21.0541 61.75C20.9975 61.5867 20.8891 61.445 20.7291 61.325C20.5691 61.2017 20.3758 61.105 20.1491 61.035C19.9258 60.965 19.6891 60.93 19.4391 60.93C19.1725 60.9267 18.9225 60.97 18.6891 61.06C18.4591 61.1467 18.2708 61.2667 18.1241 61.42C17.9775 61.5733 17.9041 61.7517 17.9041 61.955C17.9041 62.205 17.9725 62.395 18.1091 62.525C18.2458 62.655 18.4291 62.7517 18.6591 62.815C18.8925 62.875 19.1525 62.93 19.4391 62.98C19.8991 63.0533 20.3241 63.175 20.7141 63.345C21.1075 63.515 21.4225 63.7417 21.6591 64.025C21.8991 64.305 22.0191 64.65 22.0191 65.06C22.0191 65.4733 21.8991 65.8367 21.6591 66.15C21.4225 66.46 21.1075 66.7017 20.7141 66.875C20.3241 67.045 19.8991 67.13 19.4391 67.13ZM26.0977 67.13C25.6243 67.13 25.1793 67.0367 24.7627 66.85C24.346 66.66 23.9793 66.3983 23.6627 66.065C23.346 65.7317 23.0977 65.3467 22.9177 64.91C22.7377 64.47 22.6477 64 22.6477 63.5C22.6477 63 22.7377 62.5317 22.9177 62.095C23.0977 61.655 23.346 61.2683 23.6627 60.935C23.9793 60.6017 24.346 60.3417 24.7627 60.155C25.1793 59.965 25.6243 59.87 26.0977 59.87C26.5743 59.87 27.021 59.965 27.4377 60.155C27.8543 60.3417 28.221 60.6017 28.5377 60.935C28.8543 61.2683 29.101 61.655 29.2777 62.095C29.4577 62.5317 29.5477 63 29.5477 63.5C29.5477 64 29.4577 64.47 29.2777 64.91C29.101 65.3467 28.8543 65.7317 28.5377 66.065C28.221 66.3983 27.8543 66.66 27.4377 66.85C27.021 67.0367 26.5743 67.13 26.0977 67.13ZM26.0977 66.09C26.431 66.09 26.7427 66.0217 27.0327 65.885C27.3227 65.7483 27.5777 65.5617 27.7977 65.325C28.021 65.085 28.1943 64.81 28.3177 64.5C28.4443 64.1867 28.5077 63.8533 28.5077 63.5C28.5077 63.1467 28.4443 62.8133 28.3177 62.5C28.1943 62.1867 28.021 61.9117 27.7977 61.675C27.5777 61.435 27.3227 61.2483 27.0327 61.115C26.7427 60.9783 26.431 60.91 26.0977 60.91C25.7643 60.91 25.4527 60.9783 25.1627 61.115C24.8727 61.2517 24.616 61.44 24.3927 61.68C24.1727 61.9167 23.9993 62.1917 23.8727 62.505C23.7493 62.815 23.6877 63.1467 23.6877 63.5C23.6877 63.8567 23.7493 64.1917 23.8727 64.505C23.9993 64.815 24.1727 65.09 24.3927 65.33C24.616 65.5667 24.8727 65.7533 25.1627 65.89C25.4527 66.0233 25.7643 66.09 26.0977 66.09ZM30.343 63.48H33.543V64.52H30.343V63.48ZM34.5473 67V60H38.8923V61.04H35.5873V62.73H38.2473V63.77H35.5873V65.96H38.8923V67H34.5473ZM39.4965 67L42.0615 63.48L39.5265 60H40.8115L42.7015 62.6L44.5965 60H45.8815L43.3515 63.48L45.9115 67H44.6215L42.7015 64.37L40.7915 67H39.4965ZM46.7156 67V60H49.1256C49.5023 60 49.8423 60.0933 50.1456 60.28C50.4523 60.4667 50.6956 60.7183 50.8756 61.035C51.059 61.3517 51.1506 61.7017 51.1506 62.085C51.1506 62.475 51.0573 62.8283 50.8706 63.145C50.6873 63.4583 50.4423 63.7083 50.1356 63.895C49.829 64.0817 49.4923 64.175 49.1256 64.175H47.7556V67H46.7156ZM47.7556 63.135H49.0206C49.2206 63.135 49.4023 63.085 49.5656 62.985C49.7323 62.885 49.864 62.7517 49.9606 62.585C50.0606 62.4183 50.1106 62.23 50.1106 62.02C50.1106 61.81 50.0606 61.6217 49.9606 61.455C49.864 61.285 49.7323 61.1517 49.5656 61.055C49.4023 60.955 49.2206 60.905 49.0206 60.905H47.7556V63.135ZM53.1868 60H54.4018L56.9468 67H55.8468L55.3618 65.67H52.2268L51.7468 67H50.6418L53.1868 60ZM52.6118 64.63H54.9768L53.7918 61.38L52.6118 64.63ZM57.6242 67V60H58.7492L61.9642 65.12V60H63.0042V67H61.8792L58.6642 61.88V67H57.6242ZM66.5013 67.13C66.1179 67.13 65.7496 67.07 65.3963 66.95C65.0429 66.83 64.7346 66.6583 64.4713 66.435C64.2079 66.2083 64.0196 65.94 63.9063 65.63L64.8813 65.265C64.9379 65.425 65.0463 65.5683 65.2063 65.695C65.3696 65.8183 65.5629 65.915 65.7863 65.985C66.0129 66.055 66.2513 66.09 66.5013 66.09C66.7679 66.09 67.0179 66.0467 67.2513 65.96C67.4879 65.8733 67.6779 65.7533 67.8213 65.6C67.9679 65.4467 68.0413 65.2667 68.0413 65.06C68.0413 64.8467 67.9646 64.6717 67.8113 64.535C67.6613 64.3983 67.4679 64.29 67.2313 64.21C66.9979 64.13 66.7546 64.07 66.5013 64.03C66.0113 63.95 65.5713 63.8333 65.1813 63.68C64.7946 63.5267 64.4879 63.3117 64.2613 63.035C64.0379 62.7583 63.9263 62.3983 63.9263 61.955C63.9263 61.5383 64.0446 61.175 64.2813 60.865C64.5213 60.555 64.8363 60.315 65.2263 60.145C65.6196 59.9717 66.0446 59.885 66.5013 59.885C66.8779 59.885 67.2413 59.945 67.5913 60.065C67.9446 60.1817 68.2546 60.3533 68.5213 60.58C68.7913 60.8033 68.9846 61.075 69.1013 61.395L68.1163 61.75C68.0596 61.5867 67.9513 61.445 67.7913 61.325C67.6313 61.2017 67.4379 61.105 67.2113 61.035C66.9879 60.965 66.7513 60.93 66.5013 60.93C66.2346 60.9267 65.9846 60.97 65.7513 61.06C65.5213 61.1467 65.3329 61.2667 65.1863 61.42C65.0396 61.5733 64.9663 61.7517 64.9663 61.955C64.9663 62.205 65.0346 62.395 65.1713 62.525C65.3079 62.655 65.4913 62.7517 65.7213 62.815C65.9546 62.875 66.2146 62.93 66.5013 62.98C66.9613 63.0533 67.3863 63.175 67.7763 63.345C68.1696 63.515 68.4846 63.7417 68.7213 64.025C68.9613 64.305 69.0813 64.65 69.0813 65.06C69.0813 65.4733 68.9613 65.8367 68.7213 66.15C68.4846 66.46 68.1696 66.7017 67.7763 66.875C67.3863 67.045 66.9613 67.13 66.5013 67.13ZM70.1867 67V60H71.2267V67H70.1867ZM75.6258 67.13C75.1524 67.13 74.7074 67.0367 74.2908 66.85C73.8741 66.66 73.5074 66.3983 73.1908 66.065C72.8741 65.7317 72.6258 65.3467 72.4458 64.91C72.2658 64.47 72.1758 64 72.1758 63.5C72.1758 63 72.2658 62.5317 72.4458 62.095C72.6258 61.655 72.8741 61.2683 73.1908 60.935C73.5074 60.6017 73.8741 60.3417 74.2908 60.155C74.7074 59.965 75.1524 59.87 75.6258 59.87C76.1024 59.87 76.5491 59.965 76.9658 60.155C77.3824 60.3417 77.7491 60.6017 78.0658 60.935C78.3824 61.2683 78.6291 61.655 78.8058 62.095C78.9858 62.5317 79.0758 63 79.0758 63.5C79.0758 64 78.9858 64.47 78.8058 64.91C78.6291 65.3467 78.3824 65.7317 78.0658 66.065C77.7491 66.3983 77.3824 66.66 76.9658 66.85C76.5491 67.0367 76.1024 67.13 75.6258 67.13ZM75.6258 66.09C75.9591 66.09 76.2708 66.0217 76.5608 65.885C76.8508 65.7483 77.1058 65.5617 77.3258 65.325C77.5491 65.085 77.7224 64.81 77.8458 64.5C77.9724 64.1867 78.0358 63.8533 78.0358 63.5C78.0358 63.1467 77.9724 62.8133 77.8458 62.5C77.7224 62.1867 77.5491 61.9117 77.3258 61.675C77.1058 61.435 76.8508 61.2483 76.5608 61.115C76.2708 60.9783 75.9591 60.91 75.6258 60.91C75.2924 60.91 74.9808 60.9783 74.6908 61.115C74.4008 61.2517 74.1441 61.44 73.9208 61.68C73.7008 61.9167 73.5274 62.1917 73.4008 62.505C73.2774 62.815 73.2158 63.1467 73.2158 63.5C73.2158 63.8567 73.2774 64.1917 73.4008 64.505C73.5274 64.815 73.7008 65.09 73.9208 65.33C74.1441 65.5667 74.4008 65.7533 74.6908 65.89C74.9808 66.0233 75.2924 66.09 75.6258 66.09ZM79.8223 67V60H80.9473L84.1623 65.12V60H85.2023V67H84.0773L80.8623 61.88V67H79.8223Z" fill="#00AEFF"/>
<rect x="94.5" y="54.5" width="65" height="17" stroke="white"/>
<path d="M101.095 67.13C100.712 67.13 100.343 67.07 99.99 66.95C99.6367 66.83 99.3283 66.6583 99.065 66.435C98.8017 66.2083 98.6133 65.94 98.5 65.63L99.475 65.265C99.5317 65.425 99.64 65.5683 99.8 65.695C99.9633 65.8183 100.157 65.915 100.38 65.985C100.607 66.055 100.845 66.09 101.095 66.09C101.362 66.09 101.612 66.0467 101.845 65.96C102.082 65.8733 102.272 65.7533 102.415 65.6C102.562 65.4467 102.635 65.2667 102.635 65.06C102.635 64.8467 102.558 64.6717 102.405 64.535C102.255 64.3983 102.062 64.29 101.825 64.21C101.592 64.13 101.348 64.07 101.095 64.03C100.605 63.95 100.165 63.8333 99.775 63.68C99.3883 63.5267 99.0817 63.3117 98.855 63.035C98.6317 62.7583 98.52 62.3983 98.52 61.955C98.52 61.5383 98.6383 61.175 98.875 60.865C99.115 60.555 99.43 60.315 99.82 60.145C100.213 59.9717 100.638 59.885 101.095 59.885C101.472 59.885 101.835 59.945 102.185 60.065C102.538 60.1817 102.848 60.3533 103.115 60.58C103.385 60.8033 103.578 61.075 103.695 61.395L102.71 61.75C102.653 61.5867 102.545 61.445 102.385 61.325C102.225 61.2017 102.032 61.105 101.805 61.035C101.582 60.965 101.345 60.93 101.095 60.93C100.828 60.9267 100.578 60.97 100.345 61.06C100.115 61.1467 99.9267 61.2667 99.78 61.42C99.6333 61.5733 99.56 61.7517 99.56 61.955C99.56 62.205 99.6283 62.395 99.765 62.525C99.9017 62.655 100.085 62.7517 100.315 62.815C100.548 62.875 100.808 62.93 101.095 62.98C101.555 63.0533 101.98 63.175 102.37 63.345C102.763 63.515 103.078 63.7417 103.315 64.025C103.555 64.305 103.675 64.65 103.675 65.06C103.675 65.4733 103.555 65.8367 103.315 66.15C103.078 66.46 102.763 66.7017 102.37 66.875C101.98 67.045 101.555 67.13 101.095 67.13ZM104.78 67V60H105.82V67H104.78ZM106.77 67V65.96L111.03 61.04H106.77V60H112.43V61.04L108.17 65.96H112.43V67H106.77ZM113.225 67V60H117.57V61.04H114.265V62.73H116.925V63.77H114.265V65.96H117.57V67H113.225ZM120.676 67L122.031 60H122.871L124.666 64.715L126.451 60H127.291L128.651 67H127.591L126.686 62.315L125.011 66.735H124.311L122.641 62.315L121.736 67H120.676ZM131.513 60H132.728L135.273 67H134.173L133.688 65.67H130.553L130.073 67H128.968L131.513 60ZM130.938 64.63H133.303L132.118 61.38L130.938 64.63ZM140.444 60V61.04H138.214V67H137.174V61.04H134.949V60H140.444ZM141.248 67V60H143.823C144.203 60 144.545 60.0933 144.848 60.28C145.151 60.4667 145.391 60.7183 145.568 61.035C145.748 61.3483 145.838 61.6983 145.838 62.085C145.838 62.4117 145.776 62.71 145.653 62.98C145.533 63.25 145.363 63.48 145.143 63.67C144.926 63.86 144.678 63.9967 144.398 64.08L146.088 67H144.883L143.243 64.175H142.288V67H141.248ZM142.288 63.135H143.713C143.913 63.135 144.095 63.085 144.258 62.985C144.425 62.885 144.556 62.7517 144.653 62.585C144.75 62.4183 144.798 62.23 144.798 62.02C144.798 61.81 144.75 61.6217 144.653 61.455C144.556 61.285 144.425 61.1517 144.258 61.055C144.095 60.955 143.913 60.905 143.713 60.905H142.288V63.135ZM147.087 67V60H148.127V67H147.087ZM148.976 67L151.541 63.48L149.006 60H150.291L152.181 62.6L154.076 60H155.361L152.831 63.48L155.391 67H154.101L152.181 64.37L150.271 67H148.976Z" fill="white"/>
<defs>
<clipPath id="clip0_4038_2718">
<rect width="189" height="50" fill="white"/>
</clipPath>
</defs>
</svg>
