<svg width="57" height="51" viewBox="0 0 57 51" fill="none" xmlns="http://www.w3.org/2000/svg">
<path d="M55.9041 49.1724C55.9048 49.7025 55.4748 50.1325 54.9447 50.1325L1.13958 50.1541H1.1389C0.609423 50.1541 0.179476 49.7249 0.179476 49.1954L0.146973 10.5807C0.146296 10.0505 0.575569 9.62055 1.10573 9.61987C1.6352 9.61987 2.06515 10.0491 2.06515 10.5786L2.09698 48.2346L54.9433 48.2136C55.4728 48.2136 55.9027 48.6429 55.9027 49.1724H55.9041Z" fill="black"/>
<path d="M14.917 45.5276H5.29902C5.00991 45.5276 4.7323 45.4125 4.52782 45.2073C4.32402 45.0022 4.2096 44.7239 4.21095 44.4348L4.28814 28.9018C4.28949 28.6127 4.40595 28.3364 4.61178 28.1333C4.81558 27.9322 5.08981 27.8198 5.37621 27.8198C5.37892 27.8198 5.38163 27.8198 5.38501 27.8198L15.2061 27.897C15.804 27.9018 16.2861 28.3879 16.2854 28.9858L16.2657 44.1829C16.2657 44.4727 16.1493 44.7503 15.9435 44.9548L15.6828 45.2127C15.479 45.4145 15.2041 45.5276 14.9177 45.5276H14.917ZM6.39184 43.3521H14.0909L14.1079 30.063L6.45819 30.0027L6.39184 43.3521Z" fill="black"/>
<path d="M33.8704 22.0728C33.8704 21.4763 33.3884 20.9915 32.7912 20.9867L23.0412 20.9095H23.0324C22.746 20.9095 22.4711 21.0226 22.2673 21.2237C22.0621 21.4275 21.9457 21.7044 21.945 21.9936L21.8691 44.5086C21.8691 44.7998 21.9842 45.0794 22.1908 45.2846C22.3946 45.487 22.6701 45.6001 22.9565 45.6001H22.9694L32.5616 45.4897C32.8467 45.487 33.1182 45.3719 33.3193 45.1708L33.5786 44.9108C33.7824 44.7063 33.8969 44.4294 33.8962 44.1416L33.8704 22.0728ZM24.048 43.4124L24.1164 23.0931L31.6963 23.1534L31.72 43.3244L24.048 43.4124Z" fill="black"/>
<path d="M56.6132 13.8246L46.3554 1.05544C46.1476 0.796795 45.8361 0.647159 45.5009 0.64919C45.1692 0.651222 44.8564 0.80424 44.6512 1.06559L34.5924 13.895C34.3365 14.2206 34.2884 14.6628 34.4672 15.0359C34.6459 15.4096 35.021 15.6486 35.4347 15.654L39.527 15.7041L39.5528 44.3224C39.5528 44.9149 40.0281 45.3983 40.6205 45.4091L50.4883 45.5872C50.4951 45.5872 50.5019 45.5879 50.508 45.5879C50.7923 45.5879 51.0659 45.4762 51.2697 45.2764C51.4776 45.0726 51.5954 44.793 51.5954 44.5018L51.6394 15.6947L55.7919 15.5931C56.2056 15.5829 56.5773 15.3392 56.752 14.9634C56.926 14.5883 56.8726 14.1468 56.6132 13.8246ZM50.7869 13.5395C50.51 13.5463 50.2459 13.6587 50.0489 13.853L49.7882 14.111C49.5817 14.3148 49.4653 14.5924 49.4653 14.8828L49.4219 43.3928L41.7269 43.2533L41.7018 14.8835C41.7018 14.5897 41.5827 14.3087 41.3721 14.1042L41.1074 13.8469C40.9076 13.6533 40.6415 13.5429 40.3626 13.5395L37.6617 13.5056L45.5179 3.48617L53.54 13.4725L50.7869 13.5395Z" fill="black"/>
</svg>
