<svg width="34" height="54" viewBox="0 0 34 54" fill="none" xmlns="http://www.w3.org/2000/svg">
<path d="M33.4678 30.4427C33.5382 24.9082 33.6107 19.1855 33.4766 13.5623C33.4665 13.1514 33.4664 12.7322 33.4664 12.3267C33.4658 10.7105 33.4651 9.18365 32.9051 7.88907C32.2504 6.37511 30.9321 5.46782 28.8758 5.11641C28.519 5.05547 26.1715 5.02907 23.3813 5.01959C23.2967 4.60724 23.319 4.08589 23.342 3.58079C23.3725 2.88542 23.4043 2.16704 23.1863 1.53396C22.9094 0.729589 22.2871 0.230577 21.3379 0.0511497C20.9336 -0.0253607 17.6857 0.00240036 16.58 0.0179733C12.0801 0.0816191 11.8499 0.227192 11.665 0.34365C10.382 1.15344 10.5499 2.70802 10.6724 3.84282C10.7171 4.2599 10.7598 4.65396 10.7341 4.94985C10.7327 4.96678 10.732 4.9837 10.732 5.00063C10.6115 4.99725 10.4917 4.99318 10.3725 4.9898C8.14082 4.92209 6.03239 4.85776 4.28619 5.33308C2.18384 5.90521 0.971186 7.18152 0.578478 9.23511C0.390926 10.2148 0.435613 16.744 0.531759 27.3803C0.613009 36.3895 0.69697 45.7055 0.517543 48.5967C0.51348 48.6549 0.51822 48.7124 0.52973 48.7693C1.04296 51.1933 2.50004 52.5867 4.98494 53.0282C5.52254 53.1236 9.65275 53.1541 14.0761 53.1541C19.1204 53.1541 24.5459 53.1148 25.4593 53.0891C25.8012 53.0796 26.1397 53.0742 26.4674 53.0695C29.6788 53.0228 32.7129 52.9781 33.4692 48.095C33.4753 48.0564 33.4773 48.0178 33.4766 47.9798C33.3188 42.1447 33.3947 36.1959 33.4678 30.4427ZM12.2853 1.46828C13.2697 1.29021 20.4861 1.24079 21.111 1.31053C22.0671 1.49537 22.1294 2.03568 22.0637 3.52459C22.042 4.01953 22.0197 4.52803 22.0847 5.0162C21.5911 5.01553 21.0921 5.01552 20.5944 5.01552C16.7398 5.01552 12.9833 5.03584 12.9088 5.03584C12.613 5.03787 12.3123 5.03584 12.011 5.0311C12.0435 4.61943 11.9948 4.17527 11.9447 3.70537C11.8255 2.60376 11.7849 1.84271 12.2853 1.46828ZM32.1956 47.9555C31.5943 51.7153 29.6538 51.7431 26.4485 51.7905C26.1167 51.7952 25.7734 51.8 25.4234 51.8101C22.7753 51.8846 6.16577 51.9252 5.20837 51.7688C3.27124 51.4242 2.21635 50.441 1.79994 48.5865C1.97463 45.5532 1.89134 36.3103 1.81145 27.3681C1.73629 19.0271 1.65843 10.401 1.83514 9.47547C2.44994 6.26271 5.45551 6.12053 10.3332 6.26881C11.1823 6.29454 12.0605 6.32094 12.9176 6.31553C16.4493 6.29183 27.8981 6.26542 28.6598 6.37714C32.0209 6.95266 32.1854 8.91214 32.1868 12.3273C32.1868 12.7397 32.1868 13.1669 32.1976 13.5928C32.331 19.193 32.2585 24.9035 32.1881 30.4265C32.115 36.1729 32.0398 42.1143 32.1956 47.9555Z" fill="#050505"/>
<path d="M30.0477 48.0611C29.9624 48.3942 28.7274 49.5534 28.1918 49.6604C27.0882 49.8804 6.77975 49.8628 5.67272 49.6604C5.29965 49.592 4.5772 49.1498 4.32871 48.8282C3.67397 47.9798 3.34355 43.4136 4.521 43.1346C5.73501 42.8469 25.8342 43.354 29.4715 43.1346C30.4276 43.094 30.1276 47.7456 30.0477 48.0611Z" fill="#050505"/>
<path d="M30.1757 10.5703C29.9766 9.31029 29.0449 8.51201 27.8079 8.33123C26.7571 8.17821 7.62338 8.21274 6.56781 8.33123C5.20822 8.48425 4.22848 8.87425 3.81682 10.3144C4.08359 14.4392 3.4688 38.8 3.81682 40.2557C3.87437 40.4954 4.26369 41.0174 4.52099 41.0872C5.71875 41.4128 25.9595 40.8387 29.3435 41.0872C29.9522 40.6647 30.0849 40.0506 30.1757 39.3599C30.3626 37.9326 30.3998 11.9929 30.1757 10.5703ZM15.506 32.4354C15.8154 31.0284 16.1343 29.5734 16.3273 28.1231C16.3395 28.0323 16.3117 27.9402 16.2515 27.8712C16.1912 27.8014 16.1038 27.7615 16.0118 27.7615L11.0264 27.7391C12.5268 25.7627 13.9981 23.6468 15.4247 21.5946C17.0443 19.2648 18.7133 16.8638 20.4311 14.6592C20.0567 16.0527 19.6145 17.4441 19.1846 18.7976C18.6504 20.4781 18.0985 22.2155 17.6747 23.9556C17.6523 24.0497 17.6733 24.1492 17.7322 24.2264C17.7911 24.3029 17.8819 24.349 17.9787 24.351L23.2085 24.4668C21.9281 26.1013 20.5936 27.9775 19.2983 29.7982C17.8101 31.8897 16.2765 34.0448 14.8221 35.8391C15.0097 34.6975 15.2616 33.5512 15.506 32.4354Z" fill="#050505"/>
</svg>
