<svg width="59" height="53" viewBox="0 0 59 53" fill="none" xmlns="http://www.w3.org/2000/svg">
<path d="M36.5374 1.01282C32.2107 2.35384 29.6816 5.80375 29.2614 5.69044C25.9182 1.62228 20.6388 -0.151079 15.4365 0.28511C2.01692 1.40996 -3.96706 17.7805 4.88597 27.6748L29.4688 52.1542C33.8174 47.41 52.9228 29.3475 55.1956 26.1159C64.3396 13.1122 51.82 -3.72475 36.5374 1.01282ZM37.7327 26.8431C36.2278 29.0367 28.8312 45.7472 27.9099 46.333C27.4963 46.5959 26.6745 46.5068 26.5067 45.9694C26.2785 45.2395 28.6112 33.5878 28.8973 31.7286C27.2147 31.0862 20.6916 32.8073 20.9975 29.9619C21.102 28.9883 28.3417 14.5451 29.2091 12.1871C29.7388 11.5116 30.0573 9.75145 31.0281 9.64034C31.8186 9.54958 32.3087 10.0831 32.3274 10.8356C32.3455 11.5611 30.3868 22.7755 30.1448 25.1803L30.4044 25.4399C33.1959 25.7408 38.2596 24.5175 37.7327 26.8431Z" fill="black"/>
</svg>
