<svg width="64" height="50" viewBox="0 0 64 50" fill="none" xmlns="http://www.w3.org/2000/svg">
<path d="M12.0915 25.5154C12.0915 25.79 11.869 26.0125 11.5944 26.0125H1.35502C1.08043 26.0125 0.85791 25.79 0.85791 25.5154C0.85791 25.2408 1.08043 25.0183 1.35502 25.0183H11.5944C11.869 25.0183 12.0915 25.2408 12.0915 25.5154Z" fill="black"/>
<path d="M21.4358 30.6789C21.4379 30.9535 21.2174 31.1776 20.9429 31.1797L7.6219 31.2839H7.61769C7.3452 31.2839 7.12321 31.064 7.12111 30.791C7.119 30.5164 7.33942 30.2923 7.61401 30.2902L20.935 30.186H20.9392C21.2117 30.186 21.4337 30.4059 21.4358 30.6789Z" fill="black"/>
<path d="M62.4952 23.599C61.8961 21.3302 60.8529 19.1513 59.3953 17.1234C58.4721 15.8399 57.4147 14.6594 56.2359 13.5953L57.3789 12.4175C57.4252 12.4243 57.4726 12.4243 57.5199 12.4175C57.8713 12.7005 58.2148 13.0861 58.5499 13.4622C59.2069 14.1997 59.8308 14.8998 60.5883 14.8998C60.6504 14.8998 60.714 14.8951 60.7777 14.8851C61.3727 14.7941 61.8587 14.2886 62.3085 13.2938C62.3884 13.1171 62.3585 12.9104 62.2312 12.7636C62.1549 12.6752 62.0428 12.5416 61.9013 12.3727C58.935 8.82879 57.5752 7.72411 56.7061 8.14915C56.1333 8.43006 55.7861 8.80828 55.6751 9.27383C55.482 10.085 56.0786 10.8746 56.5141 11.4506C56.5783 11.5353 56.6409 11.6179 56.6956 11.6941L55.482 12.9445C55.0822 12.6142 54.6698 12.2965 54.2453 11.9919C51.5504 10.0576 48.5872 8.80723 45.5925 8.30538V6.63362C45.6956 6.63152 45.7724 6.62942 45.8176 6.62678C45.967 6.61889 46.1248 6.61837 46.291 6.61732C47.1601 6.61416 48.35 6.60943 48.8055 5.29958C48.8902 5.05603 48.9239 3.91136 48.8955 3.1265C48.826 1.21697 48.4546 0.717231 48.1816 0.507341C48.0475 0.404237 47.9207 0.30692 46.2653 0.225383C45.4157 0.183826 44.2526 0.152264 42.9907 0.137009C41.8192 0.122279 40.6224 0.122804 39.7066 0.137534C38.1106 0.163836 37.9606 0.220122 37.8617 0.257471C36.898 0.620966 36.7655 1.05442 36.5966 1.85243C36.5498 2.07337 36.5456 4.6657 36.5729 4.82351C36.7765 5.99396 37.1921 6.409 38.3536 6.60101C38.472 6.62047 39.0006 6.63362 39.7271 6.64204V8.30538C36.6177 8.85141 33.2568 10.3464 30.5776 12.3959C30.4077 12.5258 30.2405 12.6573 30.0758 12.7909L28.8233 11.4522C28.8207 11.398 28.8091 11.3438 28.7886 11.2917C28.8796 11.1981 28.999 11.0902 29.0911 11.0066C29.514 10.6231 30.04 10.146 30.1563 9.49845C30.2531 8.95505 30.0306 8.34484 29.5892 7.94347C29.2068 7.59628 28.7228 7.47108 28.2604 7.59996C27.7339 7.74725 26.4498 9.00134 25.9222 9.53422C24.1179 11.3548 24.0774 11.7867 24.0621 11.9493C24.0074 12.5358 24.2809 13.034 24.7938 13.2817C25.4877 13.6174 26.7249 13.4979 28.191 12.2312L29.3146 13.4322C26.7759 15.6626 24.8832 18.306 23.6776 21.3076C22.3861 24.5238 21.9621 28.0546 22.4514 31.518C22.9506 35.0478 24.3756 38.406 26.5729 41.2293C28.8733 44.1862 31.9848 46.4886 35.5698 47.8879C37.8086 48.7617 40.1626 49.203 42.5267 49.203C43.8907 49.203 45.2584 49.0563 46.6093 48.7611C50.0617 48.0068 53.3347 46.3156 56.0749 43.8716C58.8529 41.3934 60.9355 38.2761 62.0986 34.8573C63.3395 31.2077 63.4768 27.315 62.4952 23.599ZM53.3416 17.1623L50.825 19.6795C50.6309 19.8736 50.6309 20.1881 50.825 20.3822C50.9218 20.479 51.0491 20.528 51.1764 20.528C51.3037 20.528 51.4305 20.479 51.5278 20.3822L54.0449 17.8646C56.6725 20.6432 58.3784 24.2992 58.5289 28.1992H45.512C44.2579 26.1976 43.7134 25.9141 43.1069 25.8189V12.7283C46.9617 12.8746 50.5793 14.5595 53.3416 17.1623ZM40.7213 6.64993C41.2137 6.65309 41.7429 6.65414 42.2673 6.65414C43.1127 6.65414 43.9465 6.65098 44.5982 6.64572V8.16703C43.301 8.02185 42.0022 8.01869 40.7213 8.1623V6.64993ZM54.2327 39.3182L51.6272 36.7122C51.4331 36.5181 51.1185 36.5181 50.9244 36.7122C50.7303 36.9063 50.7303 37.2214 50.9244 37.4155L53.533 40.0241C53.047 40.487 52.5299 40.9242 51.9828 41.3329C49.3126 43.3277 46.2705 44.426 43.2147 44.5575L43.0938 40.8084C43.0848 40.5339 42.8534 40.3203 42.5809 40.3276C42.3068 40.3366 42.0916 40.5659 42.1006 40.8405L42.2205 44.5665C40.9607 44.5339 39.705 44.3356 38.4788 43.9668C36.9459 43.5055 35.422 42.7822 34.0548 41.8926C33.1842 41.3266 32.3772 40.6927 31.6718 40.0168C31.6802 40.0173 31.6892 40.0173 31.6976 40.0173C31.828 40.0173 31.9585 39.9663 32.0558 39.8647L35.0921 36.7069C35.2826 36.5091 35.2762 36.1945 35.0785 36.0041C34.8807 35.8137 34.5661 35.82 34.3757 36.0178L31.3394 39.1761C31.241 39.2787 31.1947 39.4123 31.201 39.5433C30.9774 39.3071 30.767 39.0662 30.5708 38.8226C28.2068 35.8868 26.9648 32.537 26.8385 29.1934H30.4819C30.7565 29.1934 30.979 28.9709 30.979 28.6963C30.979 28.4217 30.7565 28.1992 30.4819 28.1992H26.8338C26.9332 24.6758 28.2757 21.2071 30.8543 18.2891C31.0011 18.1229 31.1526 17.9593 31.3078 17.7989L33.7918 20.2828C33.8886 20.3796 34.0159 20.4285 34.1432 20.4285C34.2705 20.4285 34.3972 20.3796 34.4946 20.2828C34.6887 20.0887 34.6887 19.7741 34.4946 19.5795L32.0216 17.1071C34.8291 14.5484 38.665 12.8651 42.1127 12.7268V25.8336C41.1253 26.0167 40.3184 26.6895 39.9538 27.66C39.5398 28.7637 39.8092 29.9531 40.6577 30.7642C41.21 31.2918 41.9112 31.5675 42.6335 31.5675C43.0206 31.5675 43.4136 31.488 43.7929 31.326C44.714 30.932 45.3389 30.1409 45.5062 29.1934H58.5331C58.421 32.8926 56.8676 36.4986 54.2327 39.3182Z" fill="black"/>
</svg>
