<svg width="48" height="46" viewBox="0 0 48 46" fill="none" xmlns="http://www.w3.org/2000/svg">
<path d="M25.1432 0.0700967C25.4278 0.0537895 25.6713 0.0558944 25.9386 0.169519C26.4399 0.382566 32.5472 6.99912 33.643 7.87393C33.845 10.107 30.4331 8.87656 28.9707 9.26583L28.8218 15.4789H22.0622L21.9133 9.26583C11.8275 10.1107 20.9753 4.86865 25.1442 0.0706233L25.1432 0.0700967Z" fill="black"/>
<path d="M21.9618 29.6941H28.9202L28.9697 35.8077C29.3001 36.6594 34.2527 35.0618 33.642 37.1997C32.5536 38.0134 26.1059 45.1376 25.5399 45.2023C25.4705 45.2102 25.1033 45.1282 25.0428 45.1029C24.5273 44.8872 17.3158 37.6542 17.239 37.1002C16.9844 35.2633 20.5714 36.3459 21.6625 36.0566L21.9107 35.8083L21.9602 29.6946L21.9618 29.6941Z" fill="black"/>
<path d="M3.91921 25.973C2.08438 25.973 0.59463 24.488 0.589369 22.6521C0.584109 20.813 2.07123 19.3175 3.91027 19.3128L44.0714 19.2002H44.0809C45.9157 19.2002 47.406 20.6852 47.4108 22.5211C47.416 24.3601 45.9289 25.8557 44.0899 25.8604L3.92868 25.973H3.91921Z" fill="black"/>
</svg>
